#N canvas 701 25 1785 1027 12;
#X declare -lib timbreIDLib;
#X obj 190 283 searchA;
#X obj 190 393 print outlet;
#X msg 473 165 0.34 0.56 0.41;
#X msg 473 191 0.23 0.17 0.94;
#X msg 473 215 0.74 0.19 0.23;
#X msg 473 238 0.14 0.46 0.86;
#X msg 472 264 0.65 0.25 0.49;
#X msg 473 289 0.97 0.69 0.13;
#X obj 236 310 bng 19 250 50 0 empty empty empty 0 -10 0 12 #fcfcfc #000000 #000000;
#X msg 406 53 mode <;
#X msg 406 81 mode >;
#X obj 213 362 print total;
#X text 460 52 menor custo;
#X text 459 80 maior custo;
#X msg 481 135 0.000151 0.58 0;
#X floatatom 355 478 5 0 0 0 - - - 0;
#X obj 164 503 unpack f f f f;
#N canvas 669 75 1419 977 grafo1 0;
#X floatatom 829 378 5 0 0 0 - - - 0;
#X msg 829 729 set 1 \$1 1;
#X msg 882 693 set 1 \$1 1;
#X msg 936 665 set 1 \$1 1;
#X obj 369 518 bng 19 250 50 0 empty empty empty 0 -10 0 12 #fcfcfc #000000 #000000;
#X floatatom 829 422 5 0 0 0 - - - 0;
#X floatatom 882 474 5 0 0 0 - - - 0;
#X floatatom 936 505 5 0 0 0 - - - 0;
#X msg 262 579 set 1 1 1;
#X obj 828 351 inlet;
#X obj 223 238 mtxgui 1 4 30;
#X obj 266 272 mtxgui 1 1 30;
#X floatatom 988 519 5 0 0 0 - - - 0;
#X floatatom 1041 540 5 0 0 0 - - - 0;
#X floatatom 1094 560 5 0 0 0 - - - 0;
#X msg 988 637 set 1 \$1 1;
#X msg 1041 612 set 1 \$1 1;
#X msg 1094 584 set 1 \$1 1;
#X msg 381 561 matrix 1 1 0;
#X obj 1127 303 inlet;
#X obj 163 172 mtxgui 1 8 30;
#X obj 192 204 mtxgui 1 6 30;
#X msg 302 641 matrix 1 6 0 0 0 0 0 0;
#X msg 280 672 matrix 1 8 0 0 0 0 0 0 0 0;
#X msg 272 705 matrix 1 10 0 0 0 0 0 0 0 0 0 0;
#X obj 104 104 mtxgui 1 12 30;
#X obj 134 138 mtxgui 1 10 30;
#X obj 829 400 moses 13;
#X obj 882 422 moses 23;
#X obj 935 445 moses 31;
#X obj 987 470 moses 37;
#X obj 1094 537 - 40;
#X obj 1041 493 moses 41;
#X obj 882 449 - 12;
#X obj 935 477 - 22;
#X obj 988 493 - 30;
#X obj 1041 515 - 36;
#X msg 355 585 matrix 1 4 0 0 0 0;
#X msg 345 612 matrix 1 12 0 0 0 0 0 0 0 0 0 0 0 0;
#X connect 0 0 27 0;
#X connect 1 0 25 0;
#X connect 2 0 26 0;
#X connect 3 0 20 0;
#X connect 4 0 38 0;
#X connect 4 0 22 0;
#X connect 4 0 23 0;
#X connect 4 0 24 0;
#X connect 4 0 37 0;
#X connect 4 0 18 0;
#X connect 4 0 8 0;
#X connect 5 0 1 0;
#X connect 6 0 2 0;
#X connect 7 0 3 0;
#X connect 8 0 25 0;
#X connect 9 0 0 0;
#X connect 12 0 15 0;
#X connect 13 0 16 0;
#X connect 14 0 17 0;
#X connect 15 0 21 0;
#X connect 16 0 10 0;
#X connect 17 0 11 0;
#X connect 18 0 11 0;
#X connect 19 0 4 0;
#X connect 22 0 21 0;
#X connect 23 0 20 0;
#X connect 24 0 26 0;
#X connect 27 0 5 0;
#X connect 27 1 28 0;
#X connect 28 0 33 0;
#X connect 28 1 29 0;
#X connect 29 0 34 0;
#X connect 29 1 30 0;
#X connect 30 0 35 0;
#X connect 30 1 32 0;
#X connect 31 0 14 0;
#X connect 32 0 36 0;
#X connect 32 1 31 0;
#X connect 33 0 6 0;
#X connect 34 0 7 0;
#X connect 35 0 12 0;
#X connect 36 0 13 0;
#X connect 37 0 10 0;
#X connect 38 0 25 0;
#X coords 0 -1 1 1 370 210 2 100 100;
#X restore 261 690 pd grafo1;
#X obj 625 668 bng 19 250 50 0 empty empty empty 0 -10 0 12 #fcfcfc #000000 #000000;
#X obj 722 83 openpanel;
#N canvas 1170 319 656 558 sound 0;
#X obj 51 119 soundfiler;
#X obj 51 40 t a b;
#X obj 51 16 inlet;
#X obj 51 69 pack s f \$0;
#X floatatom 51 144 15 0 0 1 samples - - 0;
#X obj 51 167 / 44100;
#X floatatom 52 189 15 0 0 1 segundos - - 0;
#X msg 51 96 read -resize \$1 \$3-input;
#X obj 49 222 table \$0-input;
#X connect 0 0 4 0;
#X connect 1 0 3 0;
#X connect 2 0 1 0;
#X connect 3 0 7 0;
#X connect 4 0 5 0;
#X connect 5 0 6 0;
#X connect 7 0 0 0;
#X restore 722 104 pd sound;
#X msg 721 136 stop;
#X msg 763 135 bang;
#X obj 722 61 bng 19 250 50 0 empty empty empty 0 -10 0 12 #fcfcfc #000000 #000000;
#X obj 721 161 tabplay~ \$0-input;
#X obj 721 211 s~ input;
#N canvas 814 92 1746 672 descritores 0;
#N canvas 917 221 1033 535 onset 0;
#X msg 414 169 mask 4 0.75;
#X msg 424 245 filter_range 0 20;
#X obj 342 88 loadbang;
#X obj 180 333 outlet;
#X obj 518 139 tgl 15 0 empty empty empty 17 7 0 10 #fcfcfc #000000 #000000 0 1;
#X msg 518 159 loudness \$1;
#X obj 622 140 tgl 15 0 empty empty empty 17 7 0 10 #fcfcfc #000000 #000000 0 1;
#X msg 622 160 filter_avg \$1;
#X obj 177 126 r~ input;
#X obj 180 298 bark~ 1024 64 1;
#X obj 257 327 s bark;
#X obj 245 399 bng 19 250 50 0 empty empty empty 0 -10 0 12 #fcfcfc #000000 #000000;
#X msg 401 125 thresh 2 9;
#X msg 419 205 debounce 2500;
#X msg 426 285 minvel 1;
#X connect 0 0 9 0;
#X connect 1 0 9 0;
#X connect 2 0 12 0;
#X connect 2 0 13 0;
#X connect 2 0 1 0;
#X connect 2 0 0 0;
#X connect 2 0 14 0;
#X connect 2 0 4 0;
#X connect 2 0 6 0;
#X connect 4 0 5 0;
#X connect 6 0 7 0;
#X connect 8 0 9 0;
#X connect 9 0 3 0;
#X connect 9 0 10 0;
#X connect 9 0 11 0;
#X connect 12 0 9 0;
#X connect 13 0 9 0;
#X connect 14 0 9 0;
#X restore 389 179 pd onset;
#X obj 562 254 specHarmonicity~ 1024;
#X obj 162 250 specBrightness~ 1024 1200;
#X obj 363 250 specIrregularity~ 1024 0;
#X obj 162 276 pack f f f, f 58;
#X obj 162 302 outlet;
#X obj 357 43 r~ input;
#X obj 212 414 s irregularity;
#X obj 327 414 s inharmonicity;
#X obj 170 360 s brilho;
#X connect 0 0 1 0;
#X connect 0 0 2 0;
#X connect 0 0 3 0;
#X connect 1 1 4 2;
#X connect 2 0 4 0;
#X connect 3 0 4 1;
#X connect 4 0 5 0;
#X connect 6 0 1 0;
#X connect 6 0 2 0;
#X connect 6 0 3 0;
#X restore 885 79 pd descritores;
#X obj 885 109 s searchA;
#X obj 1464 21 declare -lib timbreIDLib;
#X obj 882 309 r bark;
#X obj 882 334 bng 19 250 50 0 empty empty empty 0 -10 0 12 #fcfcfc #000000 #000000;
#X obj 883 408 f;
#X obj 916 408 + 1;
#X floatatom 883 437 5 0 0 0 - - - 0;
#X obj 664 264 dac~;
#X msg 919 381 1;
#X obj 187 139 r searchA;
#X msg 151 69 read data/grafo-IB.txt;
#X obj 1087 377 sel 0 1;
#X floatatom 1086 272 5 0 0 0 - - - 0;
#X obj 1145 605 list store, f 12;
#X obj 1145 572 list append ->;
#X obj 1032 616 print;
#X obj 1110 404 t b b, f 16;
#X obj 1224 508 f;
#X obj 1087 353 != 1;
#X obj 1111 491 f 1;
#X obj 1086 295 t f f f, f 19;
#X obj 1198 327 f;
#X obj 1111 517 t b f;
#X msg 1129 463 1;
#X obj 1129 439 loadbang;
#X obj 1341 206 text define log;
#X msg 1341 183 clear;
#X obj 1147 731 text set log;
#X obj 1178 692 f 0;
#X obj 1210 692 + 1;
#X obj 1146 664 t l b;
#X floatatom 1246 718 5 0 0 0 - - - 0;
#X msg 1196 666 0;
#X obj 1238 212 s searchA;
#X obj 1134 157 t b b b, f 30;
#X obj 1134 123 bng 19 250 50 0 empty empty empty 0 -10 0 12 #fcfcfc #000000 #000000;
#X msg 1237 190 restart;
#X obj 1195 637 loadbang;
#X obj 283 541 s node;
#X obj 1086 246 r node;
#X msg 463 405 weighting 1 1 1;
#X connect 0 0 1 0;
#X connect 0 0 16 0;
#X connect 0 1 11 0;
#X connect 0 2 8 0;
#X connect 2 0 0 0;
#X connect 3 0 0 0;
#X connect 4 0 0 0;
#X connect 5 0 0 0;
#X connect 6 0 0 0;
#X connect 7 0 0 0;
#X connect 9 0 0 0;
#X connect 10 0 0 0;
#X connect 14 0 0 0;
#X connect 16 3 15 0;
#X connect 16 3 17 0;
#X connect 16 3 65 0;
#X connect 18 0 17 1;
#X connect 19 0 20 0;
#X connect 21 0 24 0;
#X connect 22 0 24 0;
#X connect 23 0 19 0;
#X connect 24 0 25 0;
#X connect 24 0 34 0;
#X connect 24 0 34 1;
#X connect 26 0 27 0;
#X connect 29 0 30 0;
#X connect 30 0 31 0;
#X connect 31 0 32 0;
#X connect 31 0 33 0;
#X connect 32 0 31 1;
#X connect 35 0 31 1;
#X connect 36 0 0 0;
#X connect 37 0 0 0;
#X connect 38 1 43 0;
#X connect 39 0 47 0;
#X connect 40 0 57 0;
#X connect 40 0 42 0;
#X connect 41 0 40 0;
#X connect 43 0 46 0;
#X connect 43 1 44 0;
#X connect 44 0 40 1;
#X connect 45 0 38 0;
#X connect 46 0 49 0;
#X connect 47 0 45 0;
#X connect 47 1 44 1;
#X connect 47 2 48 1;
#X connect 48 0 46 1;
#X connect 49 0 48 0;
#X connect 49 1 41 0;
#X connect 50 0 46 1;
#X connect 51 0 50 0;
#X connect 53 0 52 0;
#X connect 55 0 56 0;
#X connect 56 0 55 1;
#X connect 56 0 58 0;
#X connect 56 0 54 1;
#X connect 57 0 54 0;
#X connect 57 1 55 0;
#X connect 59 0 55 1;
#X connect 61 0 50 0;
#X connect 61 0 59 0;
#X connect 61 1 63 0;
#X connect 61 2 53 0;
#X connect 62 0 61 0;
#X connect 63 0 60 0;
#X connect 64 0 59 0;
#X connect 66 0 39 0;
#X connect 67 0 0 0;
