#N canvas 856 25 1785 1027 12;
#X obj 190 283 searchA;
#X obj 190 393 print outlet;
#X msg 473 165 0.34 0.56 0.41;
#X msg 473 191 0.23 0.17 0.94;
#X msg 473 215 0.74 0.19 0.23;
#X msg 473 238 0.14 0.46 0.86;
#X msg 472 264 0.65 0.25 0.49;
#X msg 473 289 0.97 0.69 0.13;
#X obj 236 310 bng 19 250 50 0 empty empty empty 0 -10 0 12 #fcfcfc #000000 #000000;
#X msg 386 167 restart;
#X msg 406 53 mode <;
#X msg 406 81 mode >;
#X obj 213 362 print total;
#X msg 463 405 weighting 1 2 1;
#X text 460 52 menor custo;
#X text 459 80 maior custo;
#X msg 704 176 0.000151 0.58 0;
#X floatatom 391 503 5 0 0 0 - - - 0;
#X obj 164 503 unpack f f f f;
#X obj 764 268 mtxgui 2 5 30;
#X msg 873 241 matrix 2 5 0 0 0 0 0 0 0 0 0 0;
#N canvas 410 146 930 657 grafo1 0;
#X obj 101 101 mtxgui 1 4 30;
#X obj 117 136 mtxgui 1 3 30;
#X obj 133 171 mtxgui 1 2 30;
#X obj 150 206 mtxgui 1 1 30;
#X floatatom 487 115 5 0 10 0 - - - 0;
#X msg 394 307 set 1 \$1 1;
#X msg 214 330 matrix 1 4 0 0 0 0;
#X msg 533 327 set 1 \$1 1;
#X msg 579 298 set 1 \$1 1;
#X msg 230 297 matrix 1 3 0 0 0;
#X msg 232 264 matrix 1 2 0 0;
#X msg 271 237 matrix 1 1 0;
#X msg 631 277 set 1 \$1 1;
#X obj 327 198 bng 19 250 50 0 empty empty empty 0 -10 0 12 #fcfcfc #000000 #000000;
#X floatatom 487 169 5 0 0 0 - - - 0;
#X obj 487 137 moses 5;
#X obj 533 163 moses 8;
#X obj 579 204 moses 10;
#X floatatom 631 254 5 0 0 0 - - - 0;
#X floatatom 533 212 5 0 0 0 - - - 0;
#X obj 533 187 - 4;
#X obj 579 229 - 7;
#X floatatom 579 253 5 0 0 0 - - - 0;
#X obj 632 227 - 9;
#X msg 140 260 set 1 1 1;
#X obj 487 91 inlet;
#X obj 728 85 inlet;
#X connect 4 0 15 0;
#X connect 5 0 0 0;
#X connect 6 0 0 0;
#X connect 7 0 1 0;
#X connect 8 0 2 0;
#X connect 9 0 1 0;
#X connect 10 0 2 0;
#X connect 11 0 3 0;
#X connect 12 0 3 0;
#X connect 13 0 11 0;
#X connect 13 0 10 0;
#X connect 13 0 9 0;
#X connect 13 0 6 0;
#X connect 13 0 24 0;
#X connect 14 0 5 0;
#X connect 15 0 14 0;
#X connect 15 1 16 0;
#X connect 16 0 20 0;
#X connect 16 1 17 0;
#X connect 17 0 21 0;
#X connect 17 1 23 0;
#X connect 18 0 12 0;
#X connect 19 0 7 0;
#X connect 20 0 19 0;
#X connect 21 0 22 0;
#X connect 22 0 8 0;
#X connect 23 0 18 0;
#X connect 24 0 0 0;
#X connect 25 0 4 0;
#X connect 26 0 13 0;
#X coords 0 -1 1 1 130 140 2 100 100;
#X restore 1163 134 pd grafo1;
#X obj 1286 110 bng 19 250 50 0 empty empty empty 0 -10 0 12 #fcfcfc #000000 #000000;
#N canvas 669 75 1419 977 grafo1 0;
#X floatatom 829 378 5 0 0 0 - - - 0;
#X msg 829 729 set 1 \$1 1;
#X msg 882 693 set 1 \$1 1;
#X msg 936 665 set 1 \$1 1;
#X obj 369 518 bng 19 250 50 0 empty empty empty 0 -10 0 12 #fcfcfc #000000 #000000;
#X floatatom 829 422 5 0 0 0 - - - 0;
#X floatatom 882 474 5 0 0 0 - - - 0;
#X floatatom 936 505 5 0 0 0 - - - 0;
#X msg 262 579 set 1 1 1;
#X obj 830 351 inlet;
#X obj 103 102 mtxgui 1 30 30;
#X obj 325 136 mtxgui 1 15 30;
#X obj 446 170 mtxgui 1 7 30;
#X obj 488 204 mtxgui 1 4 30;
#X obj 535 273 mtxgui 1 1 30;
#X obj 829 400 moses 31;
#X obj 882 422 moses 46;
#X obj 882 449 - 30;
#X obj 935 446 moses 53;
#X obj 935 477 - 45;
#X obj 988 470 moses 57;
#X obj 988 493 - 52;
#X floatatom 988 519 5 0 0 0 - - - 0;
#X obj 1041 493 moses 60;
#X obj 1041 516 - 56;
#X floatatom 1041 540 5 0 0 0 - - - 0;
#X obj 1094 536 - 59;
#X floatatom 1094 560 5 0 0 0 - - - 0;
#X msg 988 637 set 1 \$1 1;
#X msg 1041 612 set 1 \$1 1;
#X msg 1094 584 set 1 \$1 1;
#X msg 272 705 matrix 1 30 0 0 0 0 0 0 0 0 0 0 0 0 0 0 0 0 0 0 0 0 0 0 0 0 0 0 0 0 0 0;
#X msg 288 672 matrix 1 15 0 0 0 0 0 0 0 0 0 0 0 0 0 0 0;
#X msg 290 639 matrix 1 7 0 0 0 0 0 0 0;
#X msg 329 612 matrix 1 4 0 0 0 0;
#X msg 381 561 matrix 1 1 0;
#X obj 506 239 mtxgui 1 3 30;
#X msg 355 585 matrix 1 3 0 0 0;
#X obj 1127 303 inlet;
#X connect 0 0 15 0;
#X connect 1 0 10 0;
#X connect 2 0 11 0;
#X connect 3 0 12 0;
#X connect 4 0 34 0;
#X connect 4 0 33 0;
#X connect 4 0 32 0;
#X connect 4 0 31 0;
#X connect 4 0 8 0;
#X connect 4 0 37 0;
#X connect 4 0 35 0;
#X connect 5 0 1 0;
#X connect 6 0 2 0;
#X connect 7 0 3 0;
#X connect 8 0 10 0;
#X connect 9 0 0 0;
#X connect 15 0 5 0;
#X connect 15 1 16 0;
#X connect 16 0 17 0;
#X connect 16 1 18 0;
#X connect 17 0 6 0;
#X connect 18 0 19 0;
#X connect 18 1 20 0;
#X connect 19 0 7 0;
#X connect 20 0 21 0;
#X connect 20 1 23 0;
#X connect 21 0 22 0;
#X connect 22 0 28 0;
#X connect 23 0 24 0;
#X connect 23 1 26 0;
#X connect 24 0 25 0;
#X connect 25 0 29 0;
#X connect 26 0 27 0;
#X connect 27 0 30 0;
#X connect 28 0 13 0;
#X connect 29 0 36 0;
#X connect 30 0 14 0;
#X connect 31 0 10 0;
#X connect 32 0 11 0;
#X connect 33 0 12 0;
#X connect 34 0 13 0;
#X connect 35 0 14 0;
#X connect 37 0 36 0;
#X connect 38 0 4 0;
#X coords 0 -1 1 1 910 210 2 100 100;
#X restore 259 562 pd grafo1;
#X obj 1162 524 bng 19 250 50 0 empty empty empty 0 -10 0 12 #fcfcfc #000000 #000000;
#X msg 151 69 read data/grafo.txt;
#X connect 0 0 1 0;
#X connect 0 0 18 0;
#X connect 0 1 12 0;
#X connect 0 2 8 0;
#X connect 2 0 0 0;
#X connect 3 0 0 0;
#X connect 4 0 0 0;
#X connect 5 0 0 0;
#X connect 6 0 0 0;
#X connect 7 0 0 0;
#X connect 9 0 0 0;
#X connect 10 0 0 0;
#X connect 11 0 0 0;
#X connect 13 0 0 0;
#X connect 16 0 0 0;
#X connect 18 3 17 0;
#X connect 18 3 23 0;
#X connect 20 0 19 0;
#X connect 22 0 21 1;
#X connect 24 0 23 1;
#X connect 25 0 0 0;
